<?xml version="1.0" encoding="utf-8"?>
<!-- Generator: Adobe Illustrator 26.0.2, SVG Export Plug-In . SVG Version: 6.00 Build 0)  -->
<svg version="1.1" id="Layer_1" xmlns="http://www.w3.org/2000/svg" xmlns:xlink="http://www.w3.org/1999/xlink" x="0px" y="0px"
	 viewBox="0 0 200 200" style="enable-background:new 0 0 200 200;" xml:space="preserve">
<style type="text/css">
	.st0{fill:#FEE249;}
	.st1{fill:#FFFFFF;}
	.st2{fill:none;stroke:#000000;stroke-width:2;stroke-linecap:round;stroke-miterlimit:10;}
	.st3{fill:#010101;}
	.st4{fill:#FFFFFF;stroke:#000000;stroke-width:2;stroke-linecap:round;stroke-miterlimit:10;}
	.st5{fill:#010101;stroke:#000000;stroke-width:2;stroke-linecap:round;stroke-miterlimit:10;}
</style>
<rect x="-1.97" y="-2.02" class="st0" width="205.11" height="203.98"/>
<g>
	<g id="Layer_2_00000094614478815936002820000014293959546941517237_">
		<g>
			<path class="st1" d="M166.88,97.12c3.9-16.41,6.07-32.39-2.16-47.11c-3.16-5.64-8.65-15.19-14.03-21.42
				c5.96,0.95,11.39,2.32,14.03,7.75c1.16,2.43,6.86,7.65,8.91,9.39c3.11,2.58,3.48,1.64,7.12,0c3.69-1.64,7.91-7.49,11.18-9.81
				c0.95-0.69,2.58,1.37,3.75,1.32c0.95,0,2.74,8.91,2.95,9.81c0.9,3.59,3.48,8.6-0.58,8.33c-4.48-0.32-8.28,0.11-12.19,1.79
				c-3.69,1.53-1.48,2.95,0.11,7.38c0.11,0.37,5.17,7.33,4.33,16.46c-1.21,13.4-0.58,13.56-6.86,28.59
				c-2.16,5.17-4.06,10.08-9.6,11.02c-1.85-4.91,3.69-6.38,3.38-11.6c-0.58-8.65-7.28-10.29-10.87-10.66"/>
		</g>
		<g>
			<path class="st1" d="M165.3,167.91c0.47-9.02,0-9.65-2.43-17.51c-0.58-1.85-6.28-7.23-4.38-7.02c0.9,0.11,15.3,6.54,16.09,6.96
				c19.78,10.66,19.25,12.82,37.14,26.43c12.66,9.6,10.23,9.44,20.47,21.63c1.42,1.69,18.57,22.79,20.1,24.42
				c1.53,1.64,6.44,7.12,5.86,12.03c-1.16,10.18-3.8,14.56-4.75,18.2c-1.58,6.22-3.9,4.96-5.75,6.01
				c-3.96,2.27-14.3,0.16-18.57,1.74c-7.28,2.64-8.86,8.49-14.82,10.18c-0.74,0.21-12.13-0.74-12.66-1.21
				c-0.74-0.69-10.29-5.8-10.5-6.8c-2.16-9.81,0.74-14.45-1.05-20.2c-0.37-1.16-3.64-3.64-4.48-8.86c-0.26-1.48-1.21-3.38-0.95-6.17
				c0.37-3.59-1.21-7.7,6.86-6.54c8.76,1.32,7.07-2.16,6.8-4.22c-1.21-11.45-5.22-9.07-12.34-18.52c0,0-4.85-5.22-9.07-12.34"/>
		</g>
		<path class="st2" d="M138.55,141.37c0,0-16.51,6.75-26.59,6.17s-19.31-31.07-20.47-43.52c-1.16-12.45,3.16-33.18,4.96-42.04
			S86.97,45.37,85.8,42.41c-1.16-2.95,14.24,0,14.24,0s-3.53-21.31-1.79-30.23c1.74-8.91,23.68,15.98,30.81,18.36
			c7.12,2.37,17.2-3.53,26.06-1.79c8.91,1.79,15.98,16.62,18.99,18.99c2.95,2.37,16.62-11.29,19.57-11.29s7.12,17.2,6.54,18.36
			c-0.58,1.16-15.98,0.58-16.62,3.53c-0.63,2.95,7.7,13.61,6.54,27.85s-5.33,23.68-10.66,30.23"/>
		<path class="st2" d="M156.33,94.58c0,0,0,11.29,2.37,8.28s4.75-4.85,11.29-3.9c11.76,3.11,5.38,19.99,0,22.89
			s-7.97,0.84-8.28,3.53c-0.32,2.69-4.33,17.57-3.17,26.48"/>
		<ellipse class="st3" cx="132.91" cy="97.48" rx="2.95" ry="3.9"/>
		<ellipse transform="matrix(0.5 -0.866 0.866 0.5 -30.3137 134.6834)" class="st3" cx="101.48" cy="93.59" rx="3.75" ry="2.85"/>
		<path class="st2" d="M111.76,93.58c0,0-1.21,9.6-2.69,12.87c-1.48,3.27-1.79,2.69-2.11,5.38c-0.32,2.69,2.37,4.75,2.37,4.75"/>
		<path class="st4" d="M109.91,124.7c1.79,0.42,5.38,1.48,8.97,1.21c3.59-0.26,8.65-5.17,11.6-2.9c2.95,2.32,2.64,4.8,1.32,6.91
			c-1.32,2.11-3.11,4.01-9.07,4.01c-5.96,0-11.34-3.48-12.82-5.75C108.43,125.92,108.12,124.28,109.91,124.7z"/>
		<path class="st2" d="M122.26,74.12c1.79-0.53,7.02-0.79,11.24,0.84c4.22,1.69,7.6,3.53,8.7,4.43"/>
		<path class="st2" d="M128.9,145.06c0,0-1.95,13.08,0,17.93s13.56-4.85,13.56-4.85"/>
		<path class="st2" d="M159.23,143.48c0,0,44.47,19.89,70.21,51.69s32.55,37.08,27.27,49.22c-5.27,12.13-3.01,7.6-5.27,12.13
			c-2.27,4.54-17.41,1.53-23.47,4.54c-6.07,3.01-9.07,11.34-20.47,9.07c-11.34-2.27-18.2-2.27-17.41-18.94
			c0.74-16.67-0.95-3.9-4.01-15.98c-3.01-12.13,0.16-14.66,8.49-13.93c8.33,0.74,10.71-2.43,20.57-2.43
			c9.86,0,21.15,20.57,21.15,20.57"/>
		<path class="st2" d="M121.73,162.68c-4.59,5.22-8.39,11.18-11.13,17.62c5.75-1.16,7.38-2.64,12.98-4.27
			c3.16,2,5.33,9.81,6.33,14.08c1.37-1.48,3.96-6.86,5.75-9.13c1.27-1.58,1.32-2.85,3.32-2.8c1.9,0.05,2.48,2.95,3.43,4.59
			c1.53,2.69,4.96,9.13,5.54,9.34c1.05,0.37,2.9-1.79,3.53-2.69c6.22-9.34,11.24-19.57,14.77-30.23"/>
		<path class="st4" d="M7.26,115.37c-0.47,3.01-4.54,4.38-7.23,2.95c-2.69-1.42-4.11-4.54-4.54-7.54c-3.27,2.69-8.55,1.69-11.6-1.32
			c-3.06-3.01-4.27-7.33-4.8-11.6c-0.32-2.43-0.37-5.01,0.58-7.28c2.64-6.17,6.01-11.5,12.71-12.19c7.86-0.79,7.81,2.53,8.86,1.37
			c0.95-1.06,1.37-2.53,2-3.8c3.9-8.23,14.45-10.55,23.58-10.66c9.07-0.05,18.78,1.37,25.58,7.38c6.8,6.01,8.91,17.88,2.32,24.11
			c2.74-0.47,5.64-0.9,8.18,0.26s4.22,4.54,2.58,6.8c3.69-0.47,7.33,2.95,7.12,6.65c-0.21,4.06-4.33,7.02-8.39,7.28
			c-4.01,0.26-7.91-1.58-11.39-3.59c-3.11,5.38-10.71,5.7-13.08,6.86"/>
		<path class="st2" d="M-11.2,112.25c-0.69,19.46,1.32,34.97,4.33,54.49c0.63,4.17,3.01,14.98,5.38,18.04
			c0.95,1.27,6.7,3.96,9.55,4.8c10.18,3.01,11.34,4.06,25.32,3.32c1.74-0.11,12.24-2.85,13.71-4.06c2.85-2.32,7.54-6.12,8.02-10.29
			c2.43-21.05,2.95-38.67,3.85-59.29"/>
		<path class="st2" d="M2.88,134.62c0.11,11.08,1.05,22.15,2.9,33.07"/>
		<path class="st2" d="M26.67,131.77c0.47,3.53,0.53,7.17,0.11,10.71"/>
		<path class="st2" d="M29.47,163.79c-1-0.21-1.11-1.74-0.37-2.48c0.74-0.69,1.85-0.79,2.85-0.84c0.63,0,1.37,0,1.85,0.42
			c0.69,0.69,0.21,1.95-0.63,2.43c-0.84,0.47-1.9,0.37-2.85,0.26"/>
		<path class="st2" d="M36.91,145.86c-0.26-0.63-0.53-1.32-0.58-2s0.32-1.42,0.95-1.69c0.69-0.26,1.48,0.05,2.16,0.47
			c0.47,0.26,0.95,0.63,1.16,1.11c0.37,0.9-0.32,1.95-1.27,2.27c-0.95,0.32-1.95,0.05-2.85-0.32"/>
		<path class="st2" d="M9.63,124.28c-0.79-1.06-0.16-2.85,1.16-3.11c1.27-0.26,2.64,1.11,2.32,2.37c-0.32,1.27-2.16,1.9-3.16,1.06"
			/>
		<path class="st2" d="M103.37,140.79c-2.32,0.05-4.69,0.11-7.02,0.16c-4.38,0.11-8.76,0.21-13.03,1.11
			c-3.85,0.79-7.75,2.22-11.55,1.32"/>
		<path class="st2" d="M60.75,139.47c3.32,0.21,3.53,0,6.33,1.85c2.06,1.37,3.48,3.43,4.91,5.49c1.74,2.53,3.48,5.12,5.22,7.65"/>
		<path class="st2" d="M30.05,193.65c9.02,4.01,18.04,8.07,27.01,12.08c5.7,2.53,12.5,5.06,17.93,1.95
			c1.64-0.95,7.38-2.43,9.23-2.06c0.74,0.16,4.11,5.22,4.43,5.86c4.06,8.44,6.07,16.67,8.44,21.31"/>
		<g>
			<g>
				<path class="st2" d="M30.58,12.45c-1.85,3.16-3.06,6.8-2.69,10.44s2.64,7.17,6.07,8.49c3.59,1.32,7.81-0.11,10.44-2.9
					c2.64-2.8,3.75-6.7,3.9-10.55c0.05-2.53-0.32-5.22-1.95-7.17c-1.64-1.95-4.8-2.74-6.75-1.16"/>
				<path class="st2" d="M64.6,28.43c-1.64-1.37-2.32-3.9-1.37-5.8c0.95-1.9,3.59-2.85,5.43-1.79c1.69,1,2.27,3.22,2,5.12
					c-0.11,0.63-0.26,1.27-0.63,1.74c-0.63,0.84-1.69,1.21-2.74,1.27s-2.06-0.26-3.06-0.58"/>
				<path class="st2" d="M47.56,55.86c-0.58-1-1.21-2.06-1.42-3.22c-0.21-1.16,0.05-2.48,1-3.22c0.53-0.42,1.21-0.63,1.9-0.69
					c1.53-0.21,3.22,0.11,4.43,1.11c1.21,1,1.74,2.85,1.06,4.22c-0.58,1.16-1.85,1.9-3.16,2.11c-1.27,0.21-2.64,0-3.9-0.21"/>
				<path class="st2" d="M61.07,38.77c0.79,0.79,1.74,1.42,2.85,1.74"/>
				<path class="st2" d="M68.92,37.03c-0.53,0.79-1.11,1.53-1.64,2.32"/>
				<path class="st2" d="M65.02,43.63c-0.16,1.05-0.63,2.06-1.42,2.85"/>
			</g>
			<path class="st2" d="M67.92,42.47c0.47,0.63,1.27,1,2.06,1.11"/>
		</g>
		<path class="st2" d="M94.77,95.16c0.16,1,0.26,2,0.74,2.85c0.47,0.84,1.37,1.58,2.32,1.58"/>
		<ellipse class="st1" cx="25.93" cy="114.52" rx="17.2" ry="7.6"/>
	</g>
</g>
</svg>
